{
	"asset":{
		"version":"2.0",
		"generator":"Created using the official Cinema 4D glTF Exporter 1.000x284978"
	},
	"accessors":[{
		"bufferView":0,
		"type":"SCALAR",
		"componentType":5123,
		"count":38400,
		"byteOffset":0,
		"min":[0],
		"max":[7227]
	},
	{
		"bufferView":1,
		"type":"VEC3",
		"componentType":5126,
		"count":7228,
		"byteOffset":0,
		"min":[-8.828512191772461,
		-5.813716888427734,
		-22.625539779663087],
		"max":[8.897306442260743,
		13.513936996459961,
		30.312938690185548]
	},
	{
		"bufferView":1,
		"type":"VEC3",
		"componentType":5126,
		"count":7228,
		"byteOffset":12,
		"min":[-0.9999741911888123,
		-0.9998791217803955,
		-1.0],
		"max":[0.999974250793457,
		0.9999085068702698,
		1.0]
	},
	{
		"bufferView":2,
		"type":"SCALAR",
		"componentType":5123,
		"count":14976,
		"byteOffset":0,
		"min":[0],
		"max":[2543]
	},
	{
		"bufferView":3,
		"type":"VEC3",
		"componentType":5126,
		"count":2544,
		"byteOffset":0,
		"min":[-1.9735773801803589,
		-5.74350118637085,
		-1.9848401546478272],
		"max":[1.9735760688781739,
		3.3509910106658937,
		1.984842300415039]
	},
	{
		"bufferView":3,
		"type":"VEC3",
		"componentType":5126,
		"count":2544,
		"byteOffset":12,
		"min":[-1.0,
		-1.0,
		-1.0],
		"max":[1.0,
		1.0,
		1.0]
	},
	{
		"bufferView":4,
		"type":"SCALAR",
		"componentType":5123,
		"count":6300,
		"byteOffset":0,
		"min":[0],
		"max":[1981]
	},
	{
		"bufferView":5,
		"type":"VEC3",
		"componentType":5126,
		"count":1982,
		"byteOffset":0,
		"min":[-1.394745945930481,
		-6.9737396240234379,
		-1.3871102333068848],
		"max":[1.3947478532791138,
		6.973740577697754,
		1.3871021270751954]
	},
	{
		"bufferView":5,
		"type":"VEC3",
		"componentType":5126,
		"count":1982,
		"byteOffset":12,
		"min":[-0.9993869066238403,
		-1.0,
		-0.9975719451904297],
		"max":[0.9993867874145508,
		1.0,
		0.9975719451904297]
	},
	{
		"bufferView":6,
		"type":"SCALAR",
		"componentType":5123,
		"count":1728,
		"byteOffset":0,
		"min":[0],
		"max":[577]
	},
	{
		"bufferView":7,
		"type":"VEC3",
		"componentType":5126,
		"count":578,
		"byteOffset":0,
		"min":[-1.0195966958999634,
		-2.324577569961548,
		-1.0195972919464112],
		"max":[1.0195953845977784,
		2.324582576751709,
		1.0195943117141724]
	},
	{
		"bufferView":7,
		"type":"VEC3",
		"componentType":5126,
		"count":578,
		"byteOffset":12,
		"min":[-0.9990384578704834,
		-1.0,
		-0.9990384578704834],
		"max":[0.9990384578704834,
		1.0,
		0.9990384578704834]
	},
	{
		"bufferView":8,
		"type":"SCALAR",
		"componentType":5123,
		"count":1152,
		"byteOffset":0,
		"min":[0],
		"max":[289]
	},
	{
		"bufferView":9,
		"type":"VEC3",
		"componentType":5126,
		"count":290,
		"byteOffset":0,
		"min":[-0.9298317432403565,
		-0.14878639578819276,
		-0.9298315644264221],
		"max":[0.92983078956604,
		0.14878961443901063,
		0.9298303127288818]
	},
	{
		"bufferView":9,
		"type":"VEC3",
		"componentType":5126,
		"count":290,
		"byteOffset":12,
		"min":[-0.9914392828941345,
		-1.0,
		-0.9914398789405823],
		"max":[0.9914386868476868,
		1.0,
		0.9914395809173584]
	},
	{
		"bufferView":10,
		"type":"SCALAR",
		"componentType":5123,
		"count":6300,
		"byteOffset":0,
		"min":[0],
		"max":[1981]
	},
	{
		"bufferView":11,
		"type":"VEC3",
		"componentType":5126,
		"count":1982,
		"byteOffset":0,
		"min":[-1.3947463035583497,
		-6.973742961883545,
		-1.387107014656067],
		"max":[1.3947476148605347,
		6.9737372398376469,
		1.3871054649353028]
	},
	{
		"bufferView":11,
		"type":"VEC3",
		"componentType":5126,
		"count":1982,
		"byteOffset":12,
		"min":[-0.9993867874145508,
		-1.0,
		-0.9975720643997192],
		"max":[0.9993867874145508,
		1.0,
		0.9975720643997192]
	},
	{
		"bufferView":12,
		"type":"SCALAR",
		"componentType":5123,
		"count":1728,
		"byteOffset":0,
		"min":[0],
		"max":[577]
	},
	{
		"bufferView":13,
		"type":"VEC3",
		"componentType":5126,
		"count":578,
		"byteOffset":0,
		"min":[-1.0195966958999634,
		-2.3245742321014406,
		-1.019595980644226],
		"max":[1.0195953845977784,
		2.3245861530303957,
		1.0195956230163575]
	},
	{
		"bufferView":13,
		"type":"VEC3",
		"componentType":5126,
		"count":578,
		"byteOffset":12,
		"min":[-0.9990384578704834,
		-1.0,
		-0.9990384578704834],
		"max":[0.9990384578704834,
		1.0,
		0.9990385174751282]
	},
	{
		"bufferView":14,
		"type":"SCALAR",
		"componentType":5123,
		"count":1152,
		"byteOffset":0,
		"min":[0],
		"max":[289]
	},
	{
		"bufferView":15,
		"type":"VEC3",
		"componentType":5126,
		"count":290,
		"byteOffset":0,
		"min":[-0.9298321008682251,
		-0.14879128336906434,
		-0.9298309087753296],
		"max":[0.9298304319381714,
		0.14878474175930024,
		0.9298310279846191]
	},
	{
		"bufferView":15,
		"type":"VEC3",
		"componentType":5126,
		"count":290,
		"byteOffset":12,
		"min":[-0.991439163684845,
		-1.0,
		-0.9914394021034241],
		"max":[0.9914389252662659,
		1.0,
		0.9914391040802002]
	},
	{
		"bufferView":16,
		"type":"SCALAR",
		"componentType":5123,
		"count":6300,
		"byteOffset":0,
		"min":[0],
		"max":[1981]
	},
	{
		"bufferView":17,
		"type":"VEC3",
		"componentType":5126,
		"count":1982,
		"byteOffset":0,
		"min":[-1.3947468996047974,
		-6.973738670349121,
		-1.3871049880981446],
		"max":[1.394747257232666,
		6.973740577697754,
		1.387107491493225]
	},
	{
		"bufferView":17,
		"type":"VEC3",
		"componentType":5126,
		"count":1982,
		"byteOffset":12,
		"min":[-0.9993867874145508,
		-1.0,
		-0.9975719451904297],
		"max":[0.9993867874145508,
		1.0,
		0.9975719451904297]
	},
	{
		"bufferView":18,
		"type":"SCALAR",
		"componentType":5123,
		"count":1728,
		"byteOffset":0,
		"min":[0],
		"max":[577]
	},
	{
		"bufferView":19,
		"type":"VEC3",
		"componentType":5126,
		"count":578,
		"byteOffset":0,
		"min":[-1.0195963382720948,
		-2.324579954147339,
		-1.019595980644226],
		"max":[1.019595742225647,
		2.324580430984497,
		1.019595742225647]
	},
	{
		"bufferView":19,
		"type":"VEC3",
		"componentType":5126,
		"count":578,
		"byteOffset":12,
		"min":[-0.9990384578704834,
		-1.0,
		-0.9990384578704834],
		"max":[0.9990384578704834,
		1.0,
		0.9990384578704834]
	},
	{
		"bufferView":20,
		"type":"SCALAR",
		"componentType":5123,
		"count":1152,
		"byteOffset":0,
		"min":[0],
		"max":[289]
	},
	{
		"bufferView":21,
		"type":"VEC3",
		"componentType":5126,
		"count":290,
		"byteOffset":0,
		"min":[-0.9298315048217773,
		-0.14878779649734498,
		-0.929831326007843],
		"max":[0.9298310279846191,
		0.1487882286310196,
		0.9298306703567505]
	},
	{
		"bufferView":21,
		"type":"VEC3",
		"componentType":5126,
		"count":290,
		"byteOffset":12,
		"min":[-0.9914394617080689,
		-1.0,
		-0.9914391040802002],
		"max":[0.9914390444755554,
		1.0,
		0.9914394021034241]
	}],
	"scenes":[{
		"nodes":[0]
	}],
	"nodes":[{
		"name":"Trumpet",
		"translation":[-0.000008323929250764195,
		-4.13739941788729e-27,
		0.00003300128082628362],
		"rotation":[7.91494940699522e-8,
		0.7071067690849304,
		1.3289775324665244e-7,
		0.7071067690849304],
		"scale":[0.9999999403953552,
		1.0,
		0.9999999403953552],
		"children":[1,
		2,
		3,
		6,
		9]
	},
	{
		"name":"Trumpet-Pipe",
		"translation":[-4.222420386668091e-7,
		0.00000301338604913326,
		-1.3105557172821137e-7],
		"rotation":[-8.742277657347586e-8,
		0.0,
		0.0,
		-1.0],
		"scale":[1.0,
		1.0,
		1.0],
		"mesh":0
	},
	{
		"name":"Trumpet-Mouth",
		"translation":[-3.7728822231292726,
		3.8918850421905519,
		-26.354738235473634],
		"rotation":[0.7071067690849304,
		0.0,
		0.0,
		-0.7071067690849304],
		"scale":[1.0,
		1.0,
		1.0],
		"mesh":1
	},
	{
		"name":"Trumpet-Valve-01",
		"translation":[-6.91603304403543e-7,
		0.0000023145025807025378,
		-5.578984260559082],
		"rotation":[3.3483343117068789e-24,
		-5.051389337489152e-31,
		1.5086276050624293e-7,
		1.0],
		"scale":[1.0,
		1.0,
		1.0],
		"mesh":2,
		"children":[4]
	},
	{
		"name":"Trumpet-Piston",
		"translation":[0.000002642652816575719,
		7.903567790985107,
		-0.0000018556783061285387],
		"rotation":[-2.9274801742150898e-24,
		-4.411088160641446e-31,
		1.506786730942622e-7,
		-1.0],
		"scale":[1.0,
		1.0,
		1.0],
		"mesh":3,
		"children":[5]
	},
	{
		"name":"Piston-Top",
		"translation":[4.3680209671492778e-8,
		2.4649112224578859,
		-0.0000010303123190169572],
		"rotation":[0.0,
		0.0,
		0.0,
		-1.0],
		"scale":[1.0,
		1.0,
		1.0],
		"mesh":4
	},
	{
		"name":"Trumpet-Valve-02",
		"translation":[-0.0000012594460940817954,
		0.0000037122692901903067,
		-1.8596619367599488],
		"rotation":[3.3483343117068789e-24,
		-5.051389337489152e-31,
		1.5086276050624293e-7,
		1.0],
		"scale":[1.0,
		1.0,
		1.0],
		"mesh":5,
		"children":[7]
	},
	{
		"name":"Trumpet-Piston",
		"translation":[0.0000036691376408271027,
		7.903569221496582,
		-5.743922883993946e-7],
		"rotation":[-2.9274801742150898e-24,
		-4.411088160641446e-31,
		1.506786730942622e-7,
		-1.0],
		"scale":[1.0,
		1.0,
		1.0],
		"mesh":6,
		"children":[8]
	},
	{
		"name":"Piston-Top",
		"translation":[-7.42563599942514e-7,
		2.4649131298065187,
		1.3449300695356215e-7],
		"rotation":[0.0,
		0.0,
		0.0,
		-1.0],
		"scale":[1.0,
		1.0,
		1.0],
		"mesh":7
	},
	{
		"name":"Trumpet-Valve-03",
		"translation":[-1.820008748154578e-7,
		0.0000025474637368461119,
		1.85966157913208],
		"rotation":[3.3483343117068789e-24,
		-5.051389337489152e-31,
		1.5086276050624293e-7,
		1.0],
		"scale":[1.0,
		1.0,
		1.0],
		"mesh":8,
		"children":[10]
	},
	{
		"name":"Trumpet-Piston",
		"translation":[0.0000024460916847601767,
		7.9035749435424809,
		0.0000018716992826739443],
		"rotation":[-2.9274801742150898e-24,
		-4.411088160641446e-31,
		1.506786730942622e-7,
		-1.0],
		"scale":[1.0,
		1.0,
		1.0],
		"mesh":9,
		"children":[11]
	},
	{
		"name":"Piston-Top",
		"translation":[-1.6016076642699773e-7,
		2.46490478515625,
		-9.846793602719117e-8],
		"rotation":[0.0,
		0.0,
		0.0,
		-1.0],
		"scale":[1.0,
		1.0,
		1.0],
		"mesh":10
	}],
	"meshes":[{
		"name":"Trumpet-Pipe",
		"primitives":[{
			"attributes":{
				"POSITION":1,
				"NORMAL":2
			},
			"indices":0,
			"material":0
		}]
	},
	{
		"name":"Trumpet-Mouth",
		"primitives":[{
			"attributes":{
				"POSITION":4,
				"NORMAL":5
			},
			"indices":3,
			"material":1
		}]
	},
	{
		"name":"Trumpet-Valve-01",
		"primitives":[{
			"attributes":{
				"POSITION":7,
				"NORMAL":8
			},
			"indices":6,
			"material":0
		}]
	},
	{
		"name":"Trumpet-Piston",
		"primitives":[{
			"attributes":{
				"POSITION":10,
				"NORMAL":11
			},
			"indices":9,
			"material":0
		}]
	},
	{
		"name":"Piston-Top",
		"primitives":[{
			"attributes":{
				"POSITION":13,
				"NORMAL":14
			},
			"indices":12,
			"material":1
		}]
	},
	{
		"name":"Trumpet-Valve-02",
		"primitives":[{
			"attributes":{
				"POSITION":16,
				"NORMAL":17
			},
			"indices":15,
			"material":0
		}]
	},
	{
		"name":"Trumpet-Piston",
		"primitives":[{
			"attributes":{
				"POSITION":19,
				"NORMAL":20
			},
			"indices":18,
			"material":0
		}]
	},
	{
		"name":"Piston-Top",
		"primitives":[{
			"attributes":{
				"POSITION":22,
				"NORMAL":23
			},
			"indices":21,
			"material":1
		}]
	},
	{
		"name":"Trumpet-Valve-03",
		"primitives":[{
			"attributes":{
				"POSITION":25,
				"NORMAL":26
			},
			"indices":24,
			"material":0
		}]
	},
	{
		"name":"Trumpet-Piston",
		"primitives":[{
			"attributes":{
				"POSITION":28,
				"NORMAL":29
			},
			"indices":27,
			"material":0
		}]
	},
	{
		"name":"Piston-Top",
		"primitives":[{
			"attributes":{
				"POSITION":31,
				"NORMAL":32
			},
			"indices":30,
			"material":1
		}]
	}],
	"bufferViews":[{
		"buffer":0,
		"byteOffset":0,
		"byteLength":76800,
		"target":34963
	},
	{
		"buffer":0,
		"byteOffset":76800,
		"byteLength":173472,
		"target":34962,
		"byteStride":24
	},
	{
		"buffer":1,
		"byteOffset":0,
		"byteLength":29952,
		"target":34963
	},
	{
		"buffer":1,
		"byteOffset":29952,
		"byteLength":61056,
		"target":34962,
		"byteStride":24
	},
	{
		"buffer":2,
		"byteOffset":0,
		"byteLength":12600,
		"target":34963
	},
	{
		"buffer":2,
		"byteOffset":12600,
		"byteLength":47568,
		"target":34962,
		"byteStride":24
	},
	{
		"buffer":3,
		"byteOffset":0,
		"byteLength":3456,
		"target":34963
	},
	{
		"buffer":3,
		"byteOffset":3456,
		"byteLength":13872,
		"target":34962,
		"byteStride":24
	},
	{
		"buffer":4,
		"byteOffset":0,
		"byteLength":2304,
		"target":34963
	},
	{
		"buffer":4,
		"byteOffset":2304,
		"byteLength":6960,
		"target":34962,
		"byteStride":24
	},
	{
		"buffer":5,
		"byteOffset":0,
		"byteLength":12600,
		"target":34963
	},
	{
		"buffer":5,
		"byteOffset":12600,
		"byteLength":47568,
		"target":34962,
		"byteStride":24
	},
	{
		"buffer":6,
		"byteOffset":0,
		"byteLength":3456,
		"target":34963
	},
	{
		"buffer":6,
		"byteOffset":3456,
		"byteLength":13872,
		"target":34962,
		"byteStride":24
	},
	{
		"buffer":7,
		"byteOffset":0,
		"byteLength":2304,
		"target":34963
	},
	{
		"buffer":7,
		"byteOffset":2304,
		"byteLength":6960,
		"target":34962,
		"byteStride":24
	},
	{
		"buffer":8,
		"byteOffset":0,
		"byteLength":12600,
		"target":34963
	},
	{
		"buffer":8,
		"byteOffset":12600,
		"byteLength":47568,
		"target":34962,
		"byteStride":24
	},
	{
		"buffer":9,
		"byteOffset":0,
		"byteLength":3456,
		"target":34963
	},
	{
		"buffer":9,
		"byteOffset":3456,
		"byteLength":13872,
		"target":34962,
		"byteStride":24
	},
	{
		"buffer":10,
		"byteOffset":0,
		"byteLength":2304,
		"target":34963
	},
	{
		"buffer":10,
		"byteOffset":2304,
		"byteLength":6960,
		"target":34962,
		"byteStride":24
	}],
	"buffers":[{
		"uri":"data:application/octet-stream;base64,",
		"byteLength":250272
	},
	{
		"uri":"data:application/octet-stream;base64,",
		"byteLength":91008
	},
	{
		"uri":"data:application/octet-stream;base64,",
		"byteLength":60168
	},
	{
		"uri":"data:application/octet-stream;base64,",
		"byteLength":17328
	},
	{
		"uri":"data:application/octet-stream;base64,",
		"byteLength":9264
	},
	{
		"uri":"data:application/octet-stream;base64,",
		"byteLength":60168
	},
	{
		"uri":"data:application/octet-stream;base64,",
		"byteLength":17328
	},
	{
		"uri":"data:application/octet-stream;base64,",
		"byteLength":9264
	},
	{
		"uri":"data:application/octet-stream;base64,",
		"byteLength":60168
	},
	{
		"uri":"data:application/octet-stream;base64,",
		"byteLength":17328
	},
	{
		"uri":"data:application/octet-stream;base64,",
		"byteLength":9264
	}],
	"materials":[{
		"pbrMetallicRoughness":{
			"baseColorFactor":[0.9,
			0.7588235378265381,
			0.564705902338028,
			1.0],
			"metallicFactor":0.9,
			"roughnessFactor":0.135
		},
		"emissiveFactor":[0.0,
		0.0,
		0.0],
		"alphaMode":"OPAQUE",
		"doubleSided":true,
		"name":"Trumpet Metal 01"
	},
	{
		"pbrMetallicRoughness":{
			"baseColorFactor":[0.5,
			0.4901960790157318,
			0.4803921580314636,
			1.0],
			"metallicFactor":0.5,
			"roughnessFactor":0.075
		},
		"emissiveFactor":[0.0,
		0.0,
		0.0],
		"alphaMode":"OPAQUE",
		"doubleSided":true,
		"name":"Trumpet Metal 02"
	}]
}